<svg width="32" height="32" viewBox="0 0 32 32" fill="none" xmlns="http://www.w3.org/2000/svg">
<g clip-path="url(#clip0_2017_40973)">
<path d="M21.3611 27.9998H8.58822C6.49014 27.9998 4.83994 26.2407 5.01239 24.1904L6.39913 9.62927H23.4664L24.9322 24.1739C25.119 26.2289 23.4664 27.9998 21.3611 27.9998Z" fill="#FCD704"/>
<path d="M14.9829 22.6877C11.3208 22.6877 8.34375 19.7661 8.34375 16.1775C8.34375 15.7242 8.71978 15.3555 9.18202 15.3555C9.64427 15.3555 10.0203 15.7242 10.0203 16.1775C10.0203 18.8619 12.2477 21.0437 14.9829 21.0437C17.7181 21.0437 19.9455 18.8595 19.9455 16.1775C19.9455 15.7242 20.3215 15.3555 20.7837 15.3555C21.246 15.3555 21.622 15.7242 21.622 16.1775C21.6244 19.7684 18.6449 22.6877 14.9829 22.6877Z" fill="#040404"/>
<path d="M19.2236 8.19454H17.5471C17.5471 6.78775 16.3783 5.644 14.9436 5.644C13.509 5.644 12.3426 6.78775 12.3426 8.19454H10.666C10.666 5.8812 12.5845 4 14.9436 4C17.3028 4 19.2236 5.8812 19.2236 8.19454Z" fill="#040404"/>
</g>
<defs>
<clipPath id="clip0_2017_40973">
<rect width="20" height="24" fill="white" transform="translate(5 4)"/>
</clipPath>
</defs>
</svg>
