<svg width="165" height="44" viewBox="0 0 165 44" fill="none" xmlns="http://www.w3.org/2000/svg">
<g clip-path="url(#clip0_2532_46566)">
<path d="M29.4835 44.0003H6.49349C2.71349 44.0003 -0.256508 40.7803 0.053492 37.0203L2.55349 10.3203H33.2735L35.9135 36.9903C36.2435 40.7503 33.2735 44.0003 29.4835 44.0003Z" fill="#FCD704"/>
<path d="M18.0047 34.2586C11.4147 34.2586 6.05469 28.8986 6.05469 22.3186C6.05469 21.4886 6.73469 20.8086 7.56469 20.8086C8.39469 20.8086 9.07469 21.4886 9.07469 22.3186C9.07469 27.2386 13.0847 31.2386 18.0047 31.2386C22.9247 31.2386 26.9347 27.2386 26.9347 22.3186C26.9347 21.4886 27.6147 20.8086 28.4447 20.8086C29.2747 20.8086 29.9547 21.4886 29.9547 22.3186C29.9547 28.9086 24.5947 34.2586 18.0047 34.2586Z" fill="#040404"/>
<path d="M25.6344 7.69H22.6144C22.6144 5.11 20.5144 3.01 17.9244 3.01C15.3344 3.01 13.2444 5.11 13.2444 7.69H10.2344C10.2344 3.45 13.6844 0 17.9344 0C22.1844 0 25.6344 3.45 25.6344 7.69Z" fill="#040404"/>
<path d="M48.0052 36.9194C46.9052 36.9194 46.2852 36.2394 46.2852 35.0194V19.8494C46.2852 18.6194 46.8852 17.9394 47.9752 17.9394C48.9952 17.9394 49.6052 18.5294 49.6752 19.6094V20.2794H49.8452C50.4052 18.7894 51.9452 17.8594 53.8952 17.8594C57.1352 17.8594 59.0752 20.1794 59.0752 24.0494V25.9794C59.0752 29.8494 57.1052 32.1794 53.8452 32.1794C51.9452 32.1794 50.5152 31.3394 49.8952 29.8694H49.7352V35.0294C49.7352 36.2294 49.1252 36.9194 48.0052 36.9194ZM52.6852 29.3894C54.5052 29.3894 55.5552 28.0094 55.5552 25.6294V24.3694C55.5552 21.9694 54.5052 20.6094 52.6552 20.6094C50.8452 20.6094 49.7352 21.9294 49.7352 24.1594V26.0094C49.7352 28.0594 50.9152 29.3894 52.6852 29.3894Z" fill="black"/>
<path d="M62.0742 30.2091V14.9491C62.0742 13.6891 62.7342 13.0391 63.8042 13.0391C64.8642 13.0391 65.5342 13.6991 65.5342 14.9491V30.2091C65.5342 31.4691 64.8642 32.1091 63.8042 32.1091C62.7342 32.1091 62.0742 31.4591 62.0742 30.2091Z" fill="black"/>
<path d="M72.8859 32.1577C70.1759 32.1577 68.3359 30.4577 68.3359 27.9277C68.3359 25.3577 70.2359 23.7677 73.3959 23.7677H76.6959V22.6277C76.6959 21.2277 75.8159 20.4877 74.2359 20.4877C73.1859 20.4877 72.4359 20.8777 71.6659 21.5777C71.2759 21.8977 70.9059 22.0377 70.3459 22.0377C69.5859 22.0377 69.1159 21.5277 69.1159 20.8177C69.1159 20.0077 69.6759 19.1777 70.8959 18.5677C71.7759 18.1077 72.9359 17.8477 74.4659 17.8477C78.1059 17.8477 80.1559 19.5777 80.1559 22.6577V30.2577C80.1559 31.4377 79.5559 32.1077 78.4759 32.1077C77.5559 32.1077 76.9559 31.5977 76.8559 30.6877V30.1977H76.6859C75.9659 31.4477 74.5959 32.1577 72.8859 32.1577ZM74.0459 29.6677C75.5359 29.6677 76.7059 28.6477 76.7059 27.3377V25.8977H74.0359C72.6159 25.8977 71.7859 26.5777 71.7859 27.7177C71.7759 28.8677 72.6959 29.6677 74.0459 29.6677Z" fill="black"/>
<path d="M83.7759 28.5173L89.6059 20.9973V20.8173H84.3259C83.3559 20.8173 82.8359 20.2573 82.8359 19.4173C82.8359 18.5873 83.3559 18.0273 84.3259 18.0273H91.9059C93.0559 18.0273 93.7259 18.6473 93.7259 19.5573C93.7259 20.2173 93.4659 20.7873 92.8459 21.5373L87.0659 29.0773V29.2573H92.5359C93.4759 29.2573 94.0259 29.8073 94.0259 30.6073C94.0259 31.4773 93.4759 32.0373 92.5359 32.0373H84.7259C83.5559 32.0373 82.8959 31.3973 82.8959 30.4773C82.8859 29.8073 83.1759 29.2473 83.7759 28.5173Z" fill="black"/>
<path d="M100.323 32.1577C97.6134 32.1577 95.7734 30.4577 95.7734 27.9277C95.7734 25.3577 97.6734 23.7677 100.833 23.7677H104.133V22.6277C104.133 21.2277 103.253 20.4877 101.673 20.4877C100.623 20.4877 99.8734 20.8777 99.1034 21.5777C98.7134 21.8977 98.3434 22.0377 97.7834 22.0377C97.0234 22.0377 96.5534 21.5277 96.5534 20.8177C96.5534 20.0077 97.1134 19.1777 98.3334 18.5677C99.2134 18.1077 100.373 17.8477 101.903 17.8477C105.543 17.8477 107.593 19.5777 107.593 22.6577V30.2577C107.593 31.4377 106.993 32.1077 105.913 32.1077C104.993 32.1077 104.393 31.5977 104.293 30.6877V30.1977H104.123C103.403 31.4477 102.023 32.1577 100.323 32.1577ZM101.473 29.6677C102.963 29.6677 104.133 28.6477 104.133 27.3377V25.8977H101.463C100.043 25.8977 99.2134 26.5777 99.2134 27.7177C99.2034 28.8677 100.123 29.6677 101.473 29.6677Z" fill="black"/>
<path d="M111.477 23.0977H117.057C118.187 23.0977 118.817 23.6977 118.817 24.6177C118.817 25.5477 118.187 26.1677 117.057 26.1677H111.477C110.337 26.1677 109.707 25.5477 109.707 24.6377C109.707 23.6977 110.347 23.0977 111.477 23.0977Z" fill="black"/>
<path d="M122.554 26.7686C123.104 26.7686 123.524 27.0086 123.954 27.6186C124.784 28.8486 125.824 29.4686 127.164 29.4686C129.144 29.4686 130.544 28.0886 130.544 26.1086C130.544 24.1986 129.194 22.8886 127.304 22.8886C126.424 22.8886 125.534 23.2186 124.764 23.8186C123.994 24.4786 123.614 24.6286 123.124 24.6286C122.044 24.6286 121.314 23.8586 121.394 22.6486L121.884 15.9086C121.974 14.6586 122.724 14.0586 124.164 14.0586H131.584C132.634 14.0586 133.254 14.5986 133.254 15.5186C133.254 16.4386 132.654 16.9486 131.584 16.9486H124.804L124.434 21.5786H124.614C125.234 20.7386 126.684 20.1586 128.214 20.1586C131.624 20.1586 133.964 22.5186 133.964 25.9786C133.964 29.7886 131.224 32.3486 127.164 32.3486C123.614 32.3486 121.094 30.3486 121.094 28.3386C121.114 27.4686 121.674 26.7686 122.554 26.7686Z" fill="black"/>
<path d="M138.196 27.7888C138.626 27.7888 138.966 27.9288 139.506 28.3688C140.376 29.1288 141.196 29.5188 142.366 29.5188C144.946 29.5188 146.316 27.1887 146.316 23.1387H146.196C145.536 24.7987 143.886 25.8287 141.866 25.8287C138.566 25.8287 136.266 23.4087 136.266 19.9187C136.266 16.2087 138.876 13.7188 142.776 13.7188C147.146 13.7188 149.636 17.0487 149.636 22.8987C149.636 29.0287 147.056 32.3487 142.376 32.3487C140.846 32.3487 139.436 31.9788 138.376 31.3288C137.416 30.7388 136.826 29.9487 136.826 29.1687C136.836 28.3287 137.426 27.7888 138.196 27.7888ZM142.706 16.5188C140.896 16.5188 139.636 17.8787 139.636 19.8488C139.636 21.7987 140.886 23.1287 142.716 23.1287C144.546 23.1287 145.806 21.8088 145.806 19.8688C145.816 17.8988 144.546 16.5188 142.706 16.5188Z" fill="black"/>
<path d="M153.136 26.7683C153.716 26.7683 154.146 27.0383 154.626 27.7483C155.386 28.9583 156.556 29.5983 158.026 29.5983C159.996 29.5983 161.266 28.5383 161.266 26.9083C161.266 25.2783 159.966 24.1783 158.046 24.1783H156.766C155.976 24.1783 155.406 23.5883 155.406 22.7783C155.406 21.9883 155.966 21.3983 156.766 21.3983H157.986C159.596 21.3983 160.776 20.3483 160.776 18.9083C160.776 17.4683 159.626 16.4883 157.956 16.4883C156.656 16.4883 155.646 17.0883 154.956 18.2683C154.566 18.9283 154.106 19.1983 153.486 19.1983C152.646 19.1983 152.046 18.6083 152.046 17.7583C152.046 15.6583 154.606 13.7383 158.026 13.7383C161.646 13.7383 164.186 15.6883 164.186 18.4883C164.186 20.4283 162.736 22.2083 160.926 22.4683V22.6883C163.106 22.8983 164.736 24.7583 164.736 27.0283C164.736 30.1583 161.956 32.3483 158.016 32.3483C154.476 32.3483 151.766 30.3583 151.766 28.1883C151.746 27.3683 152.336 26.7683 153.136 26.7683Z" fill="black"/>
</g>
<defs>
<clipPath id="clip0_2532_46566">
<rect width="164.69" height="44" fill="white" transform="translate(0.0351562)"/>
</clipPath>
</defs>
</svg>
