<svg width="166" height="44" viewBox="0 0 166 44" fill="none" xmlns="http://www.w3.org/2000/svg">
<g clip-path="url(#clip0_2532_46565)">
<path d="M30.1749 44.0003H7.1849C3.4049 44.0003 0.434898 40.7803 0.744898 37.0203L3.2449 10.3203H33.9649L36.6049 36.9903C36.9349 40.7503 33.9649 44.0003 30.1749 44.0003Z" fill="#FCD704"/>
<path d="M18.6961 34.2586C12.1061 34.2586 6.74609 28.8986 6.74609 22.3186C6.74609 21.4886 7.42609 20.8086 8.25609 20.8086C9.08609 20.8086 9.76609 21.4886 9.76609 22.3186C9.76609 27.2386 13.7761 31.2386 18.6961 31.2386C23.6161 31.2386 27.6261 27.2386 27.6261 22.3186C27.6261 21.4886 28.3061 20.8086 29.1361 20.8086C29.9661 20.8086 30.6461 21.4886 30.6461 22.3186C30.6461 28.9086 25.2861 34.2586 18.6961 34.2586Z" fill="#040404"/>
<path d="M26.3258 7.69H23.3058C23.3058 5.11 21.2058 3.01 18.6158 3.01C16.0258 3.01 13.9358 5.11 13.9358 7.69H10.9258C10.9258 3.45 14.3758 0 18.6258 0C22.8758 0 26.3258 3.45 26.3258 7.69Z" fill="white"/>
<path d="M48.6966 36.9194C47.5966 36.9194 46.9766 36.2394 46.9766 35.0194V19.8494C46.9766 18.6194 47.5766 17.9394 48.6666 17.9394C49.6866 17.9394 50.2966 18.5294 50.3666 19.6094V20.2794H50.5366C51.0966 18.7894 52.6366 17.8594 54.5866 17.8594C57.8266 17.8594 59.7666 20.1794 59.7666 24.0494V25.9794C59.7666 29.8494 57.7966 32.1794 54.5366 32.1794C52.6366 32.1794 51.2066 31.3394 50.5866 29.8694H50.4266V35.0294C50.4266 36.2294 49.8166 36.9194 48.6966 36.9194ZM53.3766 29.3894C55.1966 29.3894 56.2466 28.0094 56.2466 25.6294V24.3694C56.2466 21.9694 55.1966 20.6094 53.3466 20.6094C51.5366 20.6094 50.4266 21.9294 50.4266 24.1594V26.0094C50.4266 28.0594 51.6066 29.3894 53.3766 29.3894Z" fill="white"/>
<path d="M62.7656 30.2091V14.9491C62.7656 13.6891 63.4256 13.0391 64.4956 13.0391C65.5556 13.0391 66.2256 13.6991 66.2256 14.9491V30.2091C66.2256 31.4691 65.5556 32.1091 64.4956 32.1091C63.4256 32.1091 62.7656 31.4591 62.7656 30.2091Z" fill="white"/>
<path d="M73.5773 32.1577C70.8673 32.1577 69.0273 30.4577 69.0273 27.9277C69.0273 25.3577 70.9273 23.7677 74.0873 23.7677H77.3873V22.6277C77.3873 21.2277 76.5073 20.4877 74.9273 20.4877C73.8773 20.4877 73.1273 20.8777 72.3573 21.5777C71.9673 21.8977 71.5973 22.0377 71.0373 22.0377C70.2773 22.0377 69.8073 21.5277 69.8073 20.8177C69.8073 20.0077 70.3673 19.1777 71.5873 18.5677C72.4673 18.1077 73.6273 17.8477 75.1573 17.8477C78.7973 17.8477 80.8473 19.5777 80.8473 22.6577V30.2577C80.8473 31.4377 80.2473 32.1077 79.1673 32.1077C78.2473 32.1077 77.6473 31.5977 77.5473 30.6877V30.1977H77.3773C76.6573 31.4477 75.2873 32.1577 73.5773 32.1577ZM74.7373 29.6677C76.2273 29.6677 77.3973 28.6477 77.3973 27.3377V25.8977H74.7273C73.3073 25.8977 72.4773 26.5777 72.4773 27.7177C72.4673 28.8677 73.3873 29.6677 74.7373 29.6677Z" fill="white"/>
<path d="M84.4673 28.5173L90.2973 20.9973V20.8173H85.0173C84.0473 20.8173 83.5273 20.2573 83.5273 19.4173C83.5273 18.5873 84.0473 18.0273 85.0173 18.0273H92.5973C93.7473 18.0273 94.4173 18.6473 94.4173 19.5573C94.4173 20.2173 94.1573 20.7873 93.5373 21.5373L87.7573 29.0773V29.2573H93.2273C94.1673 29.2573 94.7173 29.8073 94.7173 30.6073C94.7173 31.4773 94.1673 32.0373 93.2273 32.0373H85.4173C84.2473 32.0373 83.5873 31.3973 83.5873 30.4773C83.5773 29.8073 83.8673 29.2473 84.4673 28.5173Z" fill="white"/>
<path d="M101.015 32.1577C98.3048 32.1577 96.4648 30.4577 96.4648 27.9277C96.4648 25.3577 98.3648 23.7677 101.525 23.7677H104.825V22.6277C104.825 21.2277 103.945 20.4877 102.365 20.4877C101.315 20.4877 100.565 20.8777 99.7948 21.5777C99.4048 21.8977 99.0348 22.0377 98.4748 22.0377C97.7148 22.0377 97.2448 21.5277 97.2448 20.8177C97.2448 20.0077 97.8048 19.1777 99.0248 18.5677C99.9048 18.1077 101.065 17.8477 102.595 17.8477C106.235 17.8477 108.285 19.5777 108.285 22.6577V30.2577C108.285 31.4377 107.685 32.1077 106.605 32.1077C105.685 32.1077 105.085 31.5977 104.985 30.6877V30.1977H104.815C104.095 31.4477 102.715 32.1577 101.015 32.1577ZM102.165 29.6677C103.655 29.6677 104.825 28.6477 104.825 27.3377V25.8977H102.155C100.735 25.8977 99.9048 26.5777 99.9048 27.7177C99.8948 28.8677 100.815 29.6677 102.165 29.6677Z" fill="white"/>
<path d="M112.168 23.0977H117.748C118.878 23.0977 119.508 23.6977 119.508 24.6177C119.508 25.5477 118.878 26.1677 117.748 26.1677H112.168C111.028 26.1677 110.398 25.5477 110.398 24.6377C110.398 23.6977 111.038 23.0977 112.168 23.0977Z" fill="white"/>
<path d="M123.245 26.7686C123.795 26.7686 124.215 27.0086 124.645 27.6186C125.475 28.8486 126.515 29.4686 127.855 29.4686C129.835 29.4686 131.235 28.0886 131.235 26.1086C131.235 24.1986 129.885 22.8886 127.995 22.8886C127.115 22.8886 126.225 23.2186 125.455 23.8186C124.685 24.4786 124.305 24.6286 123.815 24.6286C122.735 24.6286 122.005 23.8586 122.085 22.6486L122.575 15.9086C122.665 14.6586 123.415 14.0586 124.855 14.0586H132.275C133.325 14.0586 133.945 14.5986 133.945 15.5186C133.945 16.4386 133.345 16.9486 132.275 16.9486H125.495L125.125 21.5786H125.305C125.925 20.7386 127.375 20.1586 128.905 20.1586C132.315 20.1586 134.655 22.5186 134.655 25.9786C134.655 29.7886 131.915 32.3486 127.855 32.3486C124.305 32.3486 121.785 30.3486 121.785 28.3386C121.805 27.4686 122.365 26.7686 123.245 26.7686Z" fill="white"/>
<path d="M138.887 27.7888C139.317 27.7888 139.657 27.9288 140.197 28.3688C141.067 29.1288 141.887 29.5188 143.057 29.5188C145.637 29.5188 147.007 27.1887 147.007 23.1387H146.887C146.227 24.7987 144.577 25.8287 142.557 25.8287C139.257 25.8287 136.957 23.4087 136.957 19.9187C136.957 16.2087 139.567 13.7188 143.467 13.7188C147.837 13.7188 150.327 17.0487 150.327 22.8987C150.327 29.0287 147.747 32.3487 143.067 32.3487C141.537 32.3487 140.127 31.9788 139.067 31.3288C138.107 30.7388 137.517 29.9487 137.517 29.1687C137.527 28.3287 138.117 27.7888 138.887 27.7888ZM143.397 16.5188C141.587 16.5188 140.327 17.8787 140.327 19.8488C140.327 21.7987 141.577 23.1287 143.407 23.1287C145.237 23.1287 146.497 21.8088 146.497 19.8688C146.507 17.8988 145.237 16.5188 143.397 16.5188Z" fill="white"/>
<path d="M153.828 26.7683C154.408 26.7683 154.838 27.0383 155.318 27.7483C156.078 28.9583 157.248 29.5983 158.718 29.5983C160.688 29.5983 161.958 28.5383 161.958 26.9083C161.958 25.2783 160.658 24.1783 158.738 24.1783H157.458C156.668 24.1783 156.098 23.5883 156.098 22.7783C156.098 21.9883 156.658 21.3983 157.458 21.3983H158.678C160.288 21.3983 161.468 20.3483 161.468 18.9083C161.468 17.4683 160.318 16.4883 158.648 16.4883C157.348 16.4883 156.338 17.0883 155.648 18.2683C155.258 18.9283 154.798 19.1983 154.178 19.1983C153.338 19.1983 152.738 18.6083 152.738 17.7583C152.738 15.6583 155.298 13.7383 158.718 13.7383C162.338 13.7383 164.878 15.6883 164.878 18.4883C164.878 20.4283 163.428 22.2083 161.618 22.4683V22.6883C163.798 22.8983 165.428 24.7583 165.428 27.0283C165.428 30.1583 162.648 32.3483 158.708 32.3483C155.168 32.3483 152.458 30.3583 152.458 28.1883C152.438 27.3683 153.028 26.7683 153.828 26.7683Z" fill="white"/>
</g>
<defs>
<clipPath id="clip0_2532_46565">
<rect width="164.69" height="44" fill="white" transform="translate(0.726562)"/>
</clipPath>
</defs>
</svg>
