<svg width="107" height="44" viewBox="0 0 107 44" fill="none" xmlns="http://www.w3.org/2000/svg">
<path d="M22.5888 43.2066C22.5888 43.6591 22.1968 44.0267 21.7143 43.9984C19.3621 43.8005 17.1607 42.6977 15.6228 40.8597C14.4467 39.4176 13.7832 37.8058 13.7531 35.9678C13.7229 32.8009 13.7229 29.6339 13.7531 26.4669C13.7531 25.1662 14.5673 24.0068 15.7735 23.413C19.2113 21.6881 20.7493 18.9453 20.6287 15.2694C20.508 11.0844 20.3271 6.92776 20.4477 2.7711C20.5382 0.113102 20.0858 -4.48901e-06 21.7444 0.0282721C24.1871 0.0282721 24.1871 -0.3676 24.1569 1.97936C24.1268 6.39051 24.1268 10.9148 24.1569 15.2976C24.2474 19.9633 22.2269 23.5261 18.0352 26.0145C17.6432 26.2407 17.3115 26.7497 17.3115 27.2021C17.2512 30.0297 17.2512 32.8291 17.3115 35.6568C17.3417 38.3431 19.2415 40.379 21.8651 40.7183C22.2872 40.7749 22.6491 41.0859 22.6491 41.4818L22.5888 43.2066Z" fill="#F93E6B"/>
<path d="M13.7843 8.22849C13.7843 5.82498 13.8145 3.42147 13.7843 1.04623C13.7542 0.282766 14.0256 0 14.8398 0C17.7348 0.0565532 17.2824 -0.25449 17.2824 2.20558C17.3126 6.5319 17.2824 10.8299 17.2824 15.1563C17.2824 16.3722 17.2523 16.4287 15.9857 16.4287C13.4828 16.4287 13.7843 16.5984 13.7843 14.3928C13.7542 12.3286 13.7542 10.2644 13.7843 8.22849Z" fill="#F93E6B"/>
<path d="M1.54086 43.2067C1.54086 43.6592 1.93289 44.0268 2.41539 43.9985C4.76756 43.8005 6.96895 42.6978 8.50691 40.8598C9.68299 39.4177 10.3464 37.8059 10.3766 35.9679C10.4067 32.8009 10.4067 29.634 10.3766 26.467C10.3766 25.1663 9.56237 24.0069 8.35613 23.4131C4.91834 21.66 3.38038 18.9171 3.50101 15.2412C3.65179 11.0845 3.83272 6.92785 3.7121 2.77119C3.62163 0.113193 4.07397 8.70637e-05 2.41539 0.0283637C-0.0272486 0.0283637 0.00290731 -0.367509 0.00290731 1.97945C0.0330633 6.3906 0.0330633 10.9149 0.00290731 15.326C-0.0875608 19.9634 1.93289 23.5262 6.12458 26.0146C6.51661 26.2408 6.84832 26.778 6.84832 27.2022C6.90864 30.0298 6.90864 32.8292 6.84832 35.6569C6.81817 38.3714 4.91834 40.3791 2.29477 40.7184C1.87258 40.7749 1.51071 41.086 1.51071 41.4819L1.54086 43.2067Z" fill="#F93E6B"/>
<path d="M10.3748 8.22849C10.3748 5.82498 10.3446 3.42147 10.3748 1.04623C10.4049 0.282766 10.1335 0 9.31932 0C6.4545 0.0565532 6.90684 -0.25449 6.87668 2.20558C6.84653 6.5319 6.87668 10.8299 6.87668 15.1563C6.87668 16.3722 6.90684 16.4287 8.17339 16.4287C10.6763 16.4287 10.3748 16.5984 10.3748 14.3928C10.4049 12.3286 10.3748 10.2644 10.3748 8.22849Z" fill="#F93E6B"/>
<path d="M39.9022 9.50093L44.9986 16.4853L50.0648 9.50093V20.1047H54.1057V3.64767H49.6728L44.9684 10.123L40.3244 3.64767H35.8613V20.1047H39.9022V9.50093Z" fill="white"/>
<path d="M70.2983 8.34158H65.9559L62.9403 15.8066L59.7136 8.34158H55.3711L61.1611 19.935L60.7992 20.755C60.6484 21.0943 60.4373 21.3205 60.1961 21.4619C59.9548 21.6033 59.6532 21.6881 59.3517 21.6881C59.1708 21.6881 58.9597 21.6599 58.7486 21.575C58.5073 21.4902 58.2962 21.3771 58.055 21.2357L56.6075 24.233C56.9995 24.4592 57.5122 24.6572 58.0851 24.8551C58.6883 25.0531 59.2311 25.1379 59.7739 25.1379C60.7389 25.1379 61.5229 24.9682 62.126 24.6006C62.7292 24.233 63.2117 23.7241 63.6338 23.102C64.0259 22.4516 64.4179 21.7164 64.7798 20.8681L70.2983 8.34158Z" fill="white"/>
<path d="M76.5422 19.5957C77.5374 20.1329 78.7135 20.3874 80.0403 20.3874C81.3371 20.3874 82.483 20.1329 83.4781 19.5957C84.4733 19.0584 85.2573 18.3515 85.8303 17.4184C86.4033 16.4852 86.6747 15.439 86.6747 14.2231C86.6747 13.0072 86.4033 11.961 85.8303 11.0279C85.2573 10.0947 84.4733 9.38781 83.4781 8.85055C82.4528 8.3133 81.3069 8.05881 80.0102 8.05881C78.7135 8.05881 77.5675 8.3133 76.5422 8.85055C75.5471 9.38781 74.763 10.0947 74.1901 11.0279C73.6171 11.961 73.3457 13.0072 73.3457 14.2231C73.3457 15.439 73.6473 16.4852 74.2202 17.4184C74.7932 18.3515 75.5471 19.0584 76.5422 19.5957ZM77.658 12.781C77.8993 12.3569 78.2008 12.0458 78.5929 11.7913C78.9849 11.5651 79.4674 11.452 79.98 11.452C80.4927 11.452 80.945 11.5651 81.3672 11.7913C81.7592 12.0175 82.091 12.3569 82.302 12.781C82.5131 13.2051 82.6338 13.6859 82.6338 14.2231C82.6338 14.7604 82.5131 15.2411 82.302 15.6652C82.0608 16.0894 81.7592 16.4004 81.3974 16.6549C81.0053 16.8811 80.553 16.9942 80.0403 16.9942C79.4975 16.9942 79.0452 16.8811 78.623 16.6549C78.2008 16.4287 77.8993 16.0894 77.658 15.6652C77.4469 15.2411 77.3263 14.7604 77.3263 14.2231C77.3263 13.6576 77.4469 13.1769 77.658 12.781Z" fill="white"/>
<path d="M91.7406 3.64767H87.8203V20.1047H91.7406V3.64767Z" fill="white"/>
<path d="M102.265 3.64767V9.72715C101.993 9.35955 101.692 9.04851 101.33 8.82229C100.606 8.34159 99.7317 8.0871 98.7064 8.0871C97.5304 8.0871 96.5352 8.34159 95.6908 8.82229C94.8465 9.303 94.183 10.0099 93.7307 10.943C93.2784 11.8479 93.0371 12.9507 93.0371 14.2514C93.0371 15.5238 93.2784 16.6266 93.7307 17.5315C94.183 18.4646 94.8465 19.1715 95.6908 19.6522C96.5352 20.1329 97.5304 20.3874 98.7064 20.3874C99.7317 20.3874 100.606 20.1329 101.33 19.6522C101.722 19.3695 102.054 19.0301 102.325 18.6343L102.446 20.1047H106.185V3.64767H102.265ZM101.028 16.6266C100.636 16.8529 100.214 16.966 99.7317 16.966C99.2191 16.966 98.7969 16.8529 98.4049 16.6266C98.0129 16.4004 97.7113 16.0611 97.47 15.637C97.2288 15.2128 97.1082 14.7321 97.1082 14.1948C97.1383 13.6576 97.259 13.1769 97.47 12.7527C97.7113 12.3286 98.0128 12.0176 98.3747 11.7631C98.7667 11.5368 99.1889 11.4237 99.7016 11.4237C100.214 11.4237 100.636 11.5368 101.028 11.7631C101.42 11.9893 101.722 12.3286 101.933 12.7527C102.144 13.1769 102.265 13.6576 102.265 14.1948C102.265 14.7321 102.144 15.2128 101.933 15.637C101.722 16.0894 101.42 16.4004 101.028 16.6266Z" fill="white"/>
<path d="M49.8828 34.7519L47.5306 27.598H46.9576H44.0023H43.4294L40.9867 34.9782L38.5441 27.598H34.3223L38.8457 40.0679H39.298H42.6755H42.9167L45.48 32.207L48.0131 40.0679H48.0433H51.6318H52.054L56.6076 27.598H52.3857L49.8828 34.7519Z" fill="white"/>
<path d="M62.0669 27.598H57.9355V40.0397H62.0669V27.598Z" fill="white"/>
<path d="M75.003 27.909C74.2792 27.5131 73.3745 27.2869 72.3191 27.2869C71.3541 27.2869 70.4796 27.5131 69.7558 27.9938C69.2733 28.3049 68.9115 28.729 68.5496 29.2097L68.3686 27.5697H64.4785V40.0114H68.6099V33.4512C68.6099 32.6029 68.821 31.9525 69.213 31.5284C69.6352 31.1042 70.2383 30.9063 71.0224 30.9063C71.4446 30.9346 71.8064 31.0194 72.108 31.2173C72.4096 31.387 72.6206 31.698 72.7714 32.0656C72.9222 32.4615 73.0127 32.9988 73.0127 33.6491V40.0114H77.144V33.6491V32.9139C77.144 31.6132 76.9631 30.567 76.6012 29.7187C76.2695 28.9552 75.7267 28.3331 75.003 27.909Z" fill="white"/>
<path d="M91.4068 30.6801C90.8037 29.549 90.0196 28.729 89.0244 28.1635C88.0293 27.598 86.8834 27.3152 85.6168 27.3152C84.2296 27.3152 82.9932 27.598 81.9076 28.1352C80.8522 28.6725 80.0078 29.4359 79.4047 30.4256C78.8016 31.4153 78.5 32.5464 78.5 33.8471C78.5 35.1478 78.8016 36.2789 79.4047 37.2686C80.0078 38.2582 80.8522 39.0217 81.9076 39.559C82.9631 40.0962 84.1995 40.379 85.5867 40.379C86.4913 40.379 87.396 40.2659 88.2404 40.0114C89.0848 39.7852 89.8387 39.3893 90.4719 38.8803C91.1052 38.3713 91.6179 37.721 91.9496 36.9575L88.3007 35.7699C88.1198 36.194 87.788 36.5616 87.3357 36.8161C86.8834 37.0989 86.3406 37.2403 85.6771 37.2403C85.1343 37.2403 84.6217 37.1272 84.1995 36.901C83.7471 36.6747 83.4154 36.3354 83.144 35.9113C82.9631 35.6002 82.8726 35.2609 82.8123 34.8933H92.3115C92.2813 33.1967 92.0099 31.8112 91.4068 30.6801ZM84.29 30.4822C84.682 30.3125 85.074 30.2277 85.466 30.2277C85.8279 30.2277 86.2199 30.3125 86.612 30.4822C87.004 30.6518 87.3357 30.9063 87.6071 31.2739C87.788 31.5284 87.8785 31.8677 87.9388 32.207H82.9028C82.9631 31.8394 83.0536 31.5001 83.2647 31.2456C83.5361 30.9346 83.8979 30.6518 84.29 30.4822Z" fill="white"/>
</svg>
