<svg width="136" height="36" viewBox="0 0 136 36" fill="none" xmlns="http://www.w3.org/2000/svg">
<g clip-path="url(#clip0_2532_46568)">
<path d="M24.5567 36.0017H5.7113C2.61276 36.0017 0.178181 33.3671 0.432295 30.2908L2.4816 8.44531H27.6635L29.8275 30.2662C30.098 33.3426 27.6635 36.0017 24.5567 36.0017Z" fill="#FCD704"/>
<path d="M15.1472 28.028C9.74527 28.028 5.35156 23.6425 5.35156 18.2589C5.35156 17.5798 5.90897 17.0234 6.58934 17.0234C7.26971 17.0234 7.82712 17.5798 7.82712 18.2589C7.82712 22.2843 11.1142 25.5571 15.1472 25.5571C19.1803 25.5571 22.4674 22.2843 22.4674 18.2589C22.4674 17.5798 23.0248 17.0234 23.7051 17.0234C24.3855 17.0234 24.9429 17.5798 24.9429 18.2589C24.9429 23.6507 20.5492 28.028 15.1472 28.028Z" fill="#040404"/>
<path d="M21.4011 6.29182H18.9255C18.9255 4.18091 17.2041 2.46273 15.081 2.46273C12.9579 2.46273 11.2447 4.18091 11.2447 6.29182H8.77734C8.77734 2.82273 11.6054 0 15.0892 0C18.573 0 21.4011 2.82273 21.4011 6.29182Z" fill="#040404"/>
<path d="M39.738 30.2078C38.8364 30.2078 38.3281 29.6515 38.3281 28.6533V16.2415C38.3281 15.2351 38.82 14.6787 39.7135 14.6787C40.5496 14.6787 41.0496 15.1615 41.107 16.0451V16.5933H41.2463C41.7054 15.3742 42.9678 14.6133 44.5662 14.6133C47.2221 14.6133 48.8124 16.5115 48.8124 19.6778V21.2569C48.8124 24.4233 47.1975 26.3296 44.5252 26.3296C42.9678 26.3296 41.7955 25.6424 41.2873 24.4396H41.1562V28.6615C41.1562 29.6433 40.6561 30.2078 39.738 30.2078ZM43.5743 24.0469C45.0662 24.0469 45.9269 22.9178 45.9269 20.9706V19.9396C45.9269 17.976 45.0662 16.8633 43.5498 16.8633C42.0661 16.8633 41.1562 17.9433 41.1562 19.7678V21.2815C41.1562 22.9587 42.1234 24.0469 43.5743 24.0469Z" fill="black"/>
<path d="M51.2695 24.7161V12.2307C51.2695 11.1998 51.8105 10.668 52.6876 10.668C53.5566 10.668 54.1058 11.208 54.1058 12.2307V24.7161C54.1058 25.7471 53.5566 26.2707 52.6876 26.2707C51.8105 26.2707 51.2695 25.7389 51.2695 24.7161Z" fill="black"/>
<path d="M60.1321 26.3097C57.9106 26.3097 56.4023 24.9188 56.4023 22.8488C56.4023 20.7461 57.9598 19.4452 60.5501 19.4452H63.2552V18.5125C63.2552 17.367 62.5339 16.7616 61.2387 16.7616C60.378 16.7616 59.7632 17.0807 59.132 17.6534C58.8123 17.9152 58.509 18.0297 58.05 18.0297C57.427 18.0297 57.0417 17.6125 57.0417 17.0316C57.0417 16.3688 57.5008 15.6897 58.5008 15.1907C59.2222 14.8143 60.1731 14.6016 61.4272 14.6016C64.411 14.6016 66.0915 16.017 66.0915 18.537V24.7552C66.0915 25.7207 65.5996 26.2688 64.7143 26.2688C63.9602 26.2688 63.4683 25.8516 63.3864 25.107V24.7061H63.247C62.6568 25.7288 61.5338 26.3097 60.1321 26.3097ZM61.083 24.2725C62.3043 24.2725 63.2634 23.4379 63.2634 22.3661V21.1879H61.0748C59.9108 21.1879 59.2304 21.7443 59.2304 22.677C59.2222 23.6179 59.9763 24.2725 61.083 24.2725Z" fill="black"/>
<path d="M69.0596 23.3327L73.8386 17.18V17.0327H69.5104C68.7153 17.0327 68.2891 16.5745 68.2891 15.8873C68.2891 15.2082 68.7153 14.75 69.5104 14.75H75.7239C76.6666 14.75 77.2158 15.2573 77.2158 16.0018C77.2158 16.5418 77.0027 17.0082 76.4945 17.6218L71.7565 23.7909V23.9382H76.2404C77.0109 23.9382 77.4617 24.3882 77.4617 25.0427C77.4617 25.7545 77.0109 26.2127 76.2404 26.2127H69.8383C68.8793 26.2127 68.3382 25.6891 68.3382 24.9364C68.33 24.3882 68.5678 23.93 69.0596 23.3327Z" fill="black"/>
<path d="M82.6243 26.3097C80.4028 26.3097 78.8945 24.9188 78.8945 22.8488C78.8945 20.7461 80.452 19.4452 83.0423 19.4452H85.7474V18.5125C85.7474 17.367 85.0261 16.7616 83.7309 16.7616C82.8702 16.7616 82.2554 17.0807 81.6242 17.6534C81.3045 17.9152 81.0012 18.0297 80.5422 18.0297C79.9192 18.0297 79.5339 17.6125 79.5339 17.0316C79.5339 16.3688 79.993 15.6897 80.993 15.1907C81.7144 14.8143 82.6653 14.6016 83.9194 14.6016C86.9032 14.6016 88.5836 16.017 88.5836 18.537V24.7552C88.5836 25.7207 88.0918 26.2688 87.2065 26.2688C86.4524 26.2688 85.9605 25.8516 85.8786 25.107V24.7061H85.7392C85.149 25.7288 84.0178 26.3097 82.6243 26.3097ZM83.5669 24.2725C84.7883 24.2725 85.7474 23.4379 85.7474 22.3661V21.1879H83.5588C82.3947 21.1879 81.7144 21.7443 81.7144 22.677C81.7062 23.6179 82.4603 24.2725 83.5669 24.2725Z" fill="black"/>
<path d="M91.7673 18.8984H96.3414C97.2676 18.8984 97.7841 19.3893 97.7841 20.1421C97.7841 20.903 97.2676 21.4103 96.3414 21.4103H91.7673C90.8328 21.4103 90.3164 20.903 90.3164 20.1584C90.3164 19.3893 90.841 18.8984 91.7673 18.8984Z" fill="black"/>
<path d="M100.845 21.903C101.296 21.903 101.64 22.0994 101.993 22.5985C102.673 23.6048 103.526 24.1121 104.624 24.1121C106.247 24.1121 107.395 22.983 107.395 21.363C107.395 19.8003 106.288 18.7285 104.739 18.7285C104.018 18.7285 103.288 18.9985 102.657 19.4894C102.026 20.0294 101.714 20.1521 101.312 20.1521C100.427 20.1521 99.8288 19.5221 99.8944 18.5321L100.296 13.0175C100.37 11.9948 100.985 11.5039 102.165 11.5039H108.247C109.108 11.5039 109.616 11.9457 109.616 12.6985C109.616 13.4512 109.124 13.8685 108.247 13.8685H102.69L102.386 17.6566H102.534C103.042 16.9694 104.231 16.4948 105.485 16.4948C108.28 16.4948 110.198 18.4257 110.198 21.2566C110.198 24.3739 107.952 26.4684 104.624 26.4684C101.714 26.4684 99.6484 24.8321 99.6484 23.1875C99.6648 22.4757 100.124 21.903 100.845 21.903Z" fill="black"/>
<path d="M113.668 22.7345C114.02 22.7345 114.299 22.849 114.742 23.209C115.455 23.8308 116.127 24.1499 117.086 24.1499C119.201 24.1499 120.324 22.2436 120.324 18.9299H120.226C119.685 20.2881 118.332 21.1308 116.676 21.1308C113.971 21.1308 112.086 19.1508 112.086 16.2954C112.086 13.2599 114.225 11.2227 117.422 11.2227C121.005 11.2227 123.046 13.9472 123.046 18.7336C123.046 23.749 120.931 26.4654 117.094 26.4654C115.84 26.4654 114.684 26.1627 113.816 25.6308C113.029 25.1481 112.545 24.5017 112.545 23.8636C112.553 23.1763 113.037 22.7345 113.668 22.7345ZM117.365 13.5136C115.881 13.5136 114.848 14.6263 114.848 16.2381C114.848 17.8336 115.873 18.9217 117.373 18.9217C118.873 18.9217 119.906 17.8417 119.906 16.2545C119.914 14.6427 118.873 13.5136 117.365 13.5136Z" fill="black"/>
<path d="M125.916 21.8992C126.392 21.8992 126.744 22.1201 127.138 22.701C127.761 23.691 128.72 24.2146 129.925 24.2146C131.54 24.2146 132.581 23.3474 132.581 22.0137C132.581 20.6801 131.515 19.7801 129.941 19.7801H128.892C128.244 19.7801 127.777 19.2974 127.777 18.6346C127.777 17.9883 128.236 17.5056 128.892 17.5056H129.892C131.212 17.5056 132.179 16.6465 132.179 15.4683C132.179 14.2901 131.236 13.4883 129.867 13.4883C128.802 13.4883 127.974 13.9792 127.408 14.9446C127.089 15.4846 126.712 15.7056 126.203 15.7056C125.515 15.7056 125.023 15.2228 125.023 14.5274C125.023 12.8092 127.121 11.2383 129.925 11.2383C132.892 11.2383 134.974 12.8337 134.974 15.1246C134.974 16.7119 133.786 18.1683 132.302 18.381V18.561C134.089 18.7328 135.425 20.2546 135.425 22.1119C135.425 24.6728 133.146 26.4646 129.917 26.4646C127.015 26.4646 124.793 24.8365 124.793 23.061C124.777 22.3901 125.261 21.8992 125.916 21.8992Z" fill="black"/>
</g>
<defs>
<clipPath id="clip0_2532_46568">
<rect width="135" height="36" fill="white" transform="translate(0.417969)"/>
</clipPath>
</defs>
</svg>
