<svg width="117" height="36" viewBox="0 0 117 36" fill="none" xmlns="http://www.w3.org/2000/svg">
<g clip-path="url(#clip0_1776_32766)">
<path d="M24.0955 35.9991H5.28448C2.19458 35.9991 -0.235723 33.3605 0.0182414 30.285L2.06054 8.44336H27.196L29.3547 30.2604C29.6298 33.3429 27.196 35.9991 24.0955 35.9991Z" fill="#FCD704"/>
<path d="M14.7034 28.0315C9.3102 28.0315 4.92578 23.6491 4.92578 18.2662C4.92578 17.5863 5.47956 17.0332 6.16033 17.0332C6.8411 17.0332 7.39488 17.5863 7.39488 18.2662C7.39488 22.2928 10.6753 25.5655 14.7034 25.5655C18.7316 25.5655 22.0119 22.2893 22.0119 18.2662C22.0119 17.5863 22.5657 17.0332 23.2465 17.0332C23.9273 17.0332 24.481 17.5863 24.481 18.2662C24.4846 23.6526 20.0966 28.0315 14.7034 28.0315Z" fill="#040404"/>
<path d="M20.9506 6.29181H18.4815C18.4815 4.18162 16.7602 2.46599 14.6474 2.46599C12.5345 2.46599 10.8168 4.18162 10.8168 6.29181H8.34766C8.34766 2.8218 11.173 0 14.6474 0C18.1218 0 20.9506 2.8218 20.9506 6.29181Z" fill="#040404"/>
<path d="M47.3915 11.291C46.9365 11.291 46.5908 11.4108 46.3474 11.6539C46.1041 11.8969 45.9841 12.2492 45.9841 12.7178V18.0337C45.7196 17.5511 45.3386 17.146 44.8378 16.8184C44.1499 16.3639 43.3457 16.1385 42.4216 16.1385C41.4551 16.1385 40.605 16.371 39.8714 16.8395C39.1377 17.308 38.5663 17.9703 38.1606 18.8193C37.7515 19.6719 37.5469 20.697 37.5469 21.8877C37.5469 23.0644 37.7515 24.0895 38.1606 24.9561C38.5698 25.8228 39.1377 26.4921 39.8714 26.9606C40.605 27.4292 41.4551 27.6617 42.4216 27.6617C43.3598 27.6617 44.1746 27.4292 44.8695 26.9606C45.3704 26.626 45.7443 26.2068 46.0018 25.7065V26.168C46.0018 26.6365 46.1217 26.9959 46.3651 27.2425C46.6085 27.4891 46.9541 27.6159 47.4092 27.6159C47.8642 27.6159 48.2099 27.4926 48.4532 27.2425C48.6966 26.9924 48.8165 26.6365 48.8165 26.168V12.7178C48.8165 12.2492 48.6931 11.8934 48.4427 11.6539C48.1922 11.4143 47.8465 11.291 47.3915 11.291ZM44.6931 25.1041C44.2699 25.3754 43.7796 25.5128 43.2187 25.5128C42.3722 25.5128 41.6914 25.2063 41.1764 24.5968C40.6615 23.9838 40.404 23.0855 40.404 21.8913C40.404 21.0916 40.5204 20.4222 40.7567 19.8868C40.9895 19.3513 41.3211 18.9497 41.7443 18.6855C42.1676 18.4213 42.6579 18.2909 43.2187 18.2909C44.0653 18.2909 44.7461 18.5904 45.261 19.1857C45.776 19.7811 46.0335 20.6829 46.0335 21.8913C46.0335 22.691 45.9171 23.3603 45.6808 23.8958C45.4445 24.4277 45.1164 24.8328 44.6931 25.1041Z" fill="black"/>
<path d="M60.6237 22.3318C60.8142 22.1874 60.9059 21.9796 60.9059 21.7083C60.9059 20.8487 60.7895 20.0737 60.5532 19.3867C60.3169 18.6998 59.9783 18.115 59.5338 17.6324C59.0894 17.1497 58.5497 16.7798 57.9254 16.5227C57.2975 16.2655 56.5921 16.1387 55.8055 16.1387C54.7332 16.1387 53.7773 16.3853 52.9378 16.8749C52.0983 17.3646 51.4422 18.041 50.966 18.9006C50.4899 19.7602 50.25 20.7642 50.25 21.9126C50.25 23.0893 50.4969 24.1074 50.9872 24.9705C51.4775 25.83 52.1794 26.4958 53.0859 26.9644C53.9925 27.4329 55.0718 27.6654 56.3275 27.6654C56.9166 27.6654 57.555 27.5879 58.2428 27.4259C58.9306 27.2674 59.5373 27.0243 60.0664 26.6896C60.338 26.524 60.532 26.3268 60.6449 26.1013C60.7578 25.8758 60.8001 25.6504 60.7684 25.4319C60.7366 25.2135 60.652 25.0268 60.5073 24.8789C60.3627 24.7274 60.1722 24.6393 59.9289 24.6182C59.6855 24.597 59.4068 24.6745 59.0894 24.8577C58.652 25.1008 58.1864 25.2699 57.6961 25.3685C57.2058 25.4672 56.7614 25.5165 56.3698 25.5165C55.2376 25.5165 54.3769 25.21 53.7949 24.6006C53.3328 24.1144 53.0577 23.431 52.9625 22.5503H59.816C60.1652 22.5467 60.4333 22.4763 60.6237 22.3318ZM54.2958 18.5025C54.7402 18.2101 55.2834 18.0621 55.9183 18.0621C56.4933 18.0621 56.973 18.1854 57.3575 18.4356C57.742 18.6857 58.0382 19.0415 58.2428 19.51C58.4121 19.8976 58.5074 20.3696 58.5356 20.9157H52.9766C53.0295 20.4859 53.1283 20.0948 53.2764 19.7496C53.5092 19.2141 53.8514 18.7984 54.2958 18.5025Z" fill="black"/>
<path d="M68.8608 20.2363H64.0319C63.7004 20.2363 63.4217 20.342 63.203 20.5534C62.9843 20.7648 62.875 21.036 62.875 21.3672C62.875 21.6842 62.9843 21.952 63.203 22.1704C63.4217 22.3888 63.6969 22.498 64.0319 22.498H68.8608C69.1783 22.498 69.4463 22.3888 69.665 22.1704C69.8837 21.952 69.9931 21.6842 69.9931 21.3672C69.9931 21.036 69.8837 20.7648 69.665 20.5534C69.4463 20.342 69.1783 20.2363 68.8608 20.2363Z" fill="black"/>
<path d="M79.1124 25.1717C78.9608 25.1858 78.7879 25.2175 78.5904 25.2633C78.3929 25.3091 78.1671 25.3302 77.9096 25.3302C77.1971 25.3302 76.6857 25.147 76.3682 24.7877C76.0508 24.4249 75.892 23.8823 75.892 23.1566V18.4924H78.2941C78.6574 18.4924 78.9361 18.3973 79.1336 18.2105C79.3311 18.0203 79.4299 17.7596 79.4299 17.4285C79.4299 17.0832 79.3311 16.8155 79.1336 16.6358C78.9361 16.4562 78.6574 16.3646 78.2941 16.3646H75.892V14.3037C75.892 13.8352 75.7721 13.4794 75.5287 13.2398C75.2853 12.9967 74.9397 12.877 74.4846 12.877C74.0296 12.877 73.6804 12.9967 73.43 13.2398C73.1795 13.4829 73.0561 13.8352 73.0561 14.3037V16.3646H71.878C71.5147 16.3646 71.236 16.4562 71.0385 16.6358C70.841 16.8155 70.7422 17.0832 70.7422 17.4285C70.7422 17.7596 70.841 18.0203 71.0385 18.2105C71.236 18.4008 71.5147 18.4924 71.878 18.4924H73.0561V23.3152C73.0561 24.2663 73.2148 25.0625 73.5323 25.7036C73.8497 26.3448 74.3365 26.831 74.9961 27.1656C75.6522 27.4968 76.474 27.6624 77.4546 27.6624C77.6945 27.6624 77.9767 27.6342 78.2941 27.5849C78.6116 27.532 78.869 27.4756 79.0666 27.4158C79.3241 27.3242 79.5004 27.1621 79.5992 26.9296C79.698 26.6971 79.7473 26.4294 79.7473 26.1264C79.7473 25.7318 79.6874 25.4747 79.5675 25.3443C79.444 25.214 79.2959 25.1576 79.1124 25.1717Z" fill="black"/>
<path d="M88.5693 16.8397C87.7227 16.3712 86.7245 16.1387 85.5746 16.1387C84.7139 16.1387 83.9344 16.2725 83.2395 16.5332C82.5447 16.7974 81.9485 17.1814 81.4477 17.6887C80.9468 18.196 80.5659 18.7984 80.3013 19.4995C80.0368 20.2005 79.9062 20.9967 79.9062 21.888C79.9062 23.0646 80.1391 24.0897 80.6082 24.9564C81.0773 25.823 81.7334 26.4923 82.5799 26.9609C83.4265 27.4294 84.4247 27.6619 85.5746 27.6619C86.4353 27.6619 87.2148 27.528 87.9097 27.2674C88.6045 27.0031 89.2006 26.6191 89.7015 26.1119C90.1989 25.6046 90.5833 24.9986 90.8479 24.2905C91.1124 23.5825 91.2429 22.7792 91.2429 21.8915C91.2429 20.7149 91.0066 19.6932 90.541 18.8337C90.0719 17.9706 89.4158 17.3083 88.5693 16.8397ZM88.0366 23.8925C87.8003 24.4279 87.4723 24.8331 87.049 25.1043C86.6257 25.3756 86.1354 25.513 85.5746 25.513C84.728 25.513 84.0473 25.2065 83.5323 24.597C83.0173 23.9841 82.7598 23.0857 82.7598 21.8915C82.7598 21.0918 82.8762 20.4225 83.1125 19.887C83.3453 19.3515 83.6769 18.9499 84.1002 18.6857C84.5235 18.4215 85.0138 18.2911 85.5746 18.2911C86.4211 18.2911 87.1019 18.5906 87.6169 19.1859C88.1319 19.7813 88.3894 20.6831 88.3894 21.8915C88.3858 22.6912 88.2694 23.357 88.0366 23.8925Z" fill="black"/>
<path d="M102.352 11.291C101.897 11.291 101.552 11.4108 101.308 11.6539C101.065 11.8969 100.945 12.2492 100.945 12.7178V18.0337C100.681 17.5511 100.3 17.146 99.7987 16.8184C99.1109 16.3639 98.3067 16.1385 97.3825 16.1385C96.416 16.1385 95.566 16.371 94.8323 16.8395C94.0986 17.308 93.5272 17.9703 93.1216 18.8193C92.7124 19.6719 92.5078 20.697 92.5078 21.8877C92.5078 23.0644 92.7124 24.0895 93.1216 24.9561C93.5307 25.8228 94.0986 26.4921 94.8323 26.9606C95.566 27.4292 96.416 27.6617 97.3825 27.6617C98.3208 27.6617 99.1356 27.4292 99.8304 26.9606C100.331 26.626 100.705 26.2068 100.963 25.7065V26.168C100.963 26.6365 101.083 26.9959 101.326 27.2425C101.569 27.4891 101.915 27.6159 102.37 27.6159C102.825 27.6159 103.171 27.4926 103.414 27.2425C103.658 26.9924 103.777 26.6365 103.777 26.168V12.7178C103.777 12.2492 103.654 11.8934 103.404 11.6539C103.153 11.4143 102.807 11.291 102.352 11.291ZM99.6541 25.1041C99.2308 25.3754 98.7405 25.5128 98.1797 25.5128C97.3331 25.5128 96.6524 25.2063 96.1374 24.5968C95.6224 23.9838 95.3649 23.0855 95.3649 21.8913C95.3649 21.0916 95.4813 20.4222 95.7176 19.8868C95.9504 19.3513 96.282 18.9497 96.7053 18.6855C97.1286 18.4213 97.6188 18.2909 98.1797 18.2909C99.0262 18.2909 99.707 18.5904 100.222 19.1857C100.737 19.7811 100.994 20.6829 100.994 21.8913C100.994 22.691 100.878 23.3603 100.642 23.8958C100.405 24.4277 100.077 24.8328 99.6541 25.1041Z" fill="black"/>
<path d="M116.299 18.8337C115.83 17.9741 115.174 17.3083 114.327 16.8397C113.481 16.3712 112.482 16.1387 111.332 16.1387C110.472 16.1387 109.692 16.2725 108.997 16.5332C108.302 16.7974 107.706 17.1814 107.205 17.6887C106.705 18.196 106.324 18.7984 106.059 19.4995C105.795 20.2005 105.664 20.9967 105.664 21.888C105.664 23.0646 105.897 24.0897 106.366 24.9564C106.835 25.823 107.491 26.4923 108.338 26.9609C109.184 27.4294 110.183 27.6619 111.332 27.6619C112.193 27.6619 112.973 27.528 113.667 27.2674C114.362 27.0031 114.958 26.6191 115.459 26.1119C115.957 25.6046 116.341 24.9986 116.606 24.2905C116.87 23.5825 117.001 22.7792 117.001 21.8915C117.001 20.7113 116.764 19.6932 116.299 18.8337ZM113.791 23.8925C113.555 24.4279 113.227 24.8331 112.803 25.1043C112.38 25.3756 111.89 25.513 111.329 25.513C110.482 25.513 109.802 25.2065 109.287 24.597C108.772 23.9841 108.514 23.0857 108.514 21.8915C108.514 21.0918 108.631 20.4225 108.867 19.887C109.1 19.3515 109.431 18.9499 109.854 18.6857C110.278 18.4215 110.768 18.2911 111.329 18.2911C112.175 18.2911 112.856 18.5906 113.371 19.1859C113.886 19.7813 114.144 20.6831 114.144 21.8915C114.144 22.6912 114.027 23.357 113.791 23.8925Z" fill="black"/>
</g>
<defs>
<clipPath id="clip0_1776_32766">
<rect width="117" height="36" fill="white"/>
</clipPath>
</defs>
</svg>
