<svg width="143" height="44" viewBox="0 0 143 44" fill="none" xmlns="http://www.w3.org/2000/svg">
<g clip-path="url(#clip0_1776_33162)">
<path d="M29.45 43.9995H6.4588C2.68226 43.9995 -0.288106 40.7746 0.0222951 37.0157L2.51844 10.3203H33.2395L35.8779 36.9855C36.2142 40.753 33.2395 43.9995 29.45 43.9995Z" fill="#FCD704"/>
<path d="M17.97 34.2608C11.3783 34.2608 6.01953 28.9045 6.01953 22.3254C6.01953 21.4944 6.69638 20.8184 7.52842 20.8184C8.36047 20.8184 9.03732 21.4944 9.03732 22.3254C9.03732 27.2468 13.0467 31.2468 17.97 31.2468C22.8933 31.2468 26.9026 27.2425 26.9026 22.3254C26.9026 21.4944 27.5795 20.8184 28.4115 20.8184C29.2436 20.8184 29.9204 21.4944 29.9204 22.3254C29.9247 28.9088 24.5617 34.2608 17.97 34.2608Z" fill="#040404"/>
<path d="M25.6029 7.68999H22.5851C22.5851 5.11087 20.4813 3.01399 17.8989 3.01399C15.3165 3.01399 13.217 5.11087 13.217 7.68999H10.1992C10.1992 3.44887 13.6524 0 17.8989 0C22.1453 0 25.6029 3.44887 25.6029 7.68999Z" fill="#040404"/>
<path d="M57.9191 13.7988C57.3629 13.7988 56.9404 13.9452 56.643 14.2423C56.3455 14.5394 56.1989 14.97 56.1989 15.5426V22.0399C55.8756 21.4501 55.41 20.9549 54.7978 20.5545C53.9571 19.999 52.9742 19.7235 51.8447 19.7235C50.6634 19.7235 49.6245 20.0077 48.7277 20.5803C47.831 21.153 47.1326 21.9624 46.6369 23.0001C46.1368 24.0421 45.8867 25.2951 45.8867 26.7504C45.8867 28.1885 46.1368 29.4415 46.6369 30.5007C47.1369 31.5599 47.831 32.3779 48.7277 32.9506C49.6245 33.5233 50.6634 33.8074 51.8447 33.8074C52.9915 33.8074 53.9873 33.5233 54.8366 32.9506C55.4488 32.5416 55.9058 32.0292 56.2205 31.4178V31.9818C56.2205 32.5545 56.3671 32.9937 56.6645 33.2951C56.962 33.5965 57.3845 33.7515 57.9406 33.7515C58.4968 33.7515 58.9192 33.6008 59.2167 33.2951C59.5142 32.9894 59.6608 32.5545 59.6608 31.9818V15.5426C59.6608 14.97 59.5099 14.5351 59.2038 14.2423C58.8977 13.9495 58.4752 13.7988 57.9191 13.7988ZM54.6211 30.6815C54.1037 31.013 53.5045 31.181 52.819 31.181C51.7843 31.181 50.9523 30.8064 50.3229 30.0615C49.6934 29.3123 49.3787 28.2143 49.3787 26.7547C49.3787 25.7773 49.521 24.9592 49.8098 24.3047C50.0944 23.6503 50.4996 23.1594 51.017 22.8365C51.5343 22.5136 52.1335 22.3543 52.819 22.3543C53.8537 22.3543 54.6857 22.7202 55.3151 23.4479C55.9446 24.1756 56.2593 25.2778 56.2593 26.7547C56.2593 27.7321 56.117 28.5502 55.8282 29.2046C55.5393 29.8548 55.1384 30.35 54.6211 30.6815Z" fill="black"/>
<path d="M74.0892 27.2921C74.322 27.1156 74.4341 26.8615 74.4341 26.53C74.4341 25.4794 74.2918 24.5321 74.003 23.6925C73.7141 22.8529 73.3002 22.1382 72.757 21.5483C72.2138 20.9584 71.5542 20.5063 70.7912 20.192C70.0238 19.8777 69.1616 19.7227 68.2002 19.7227C66.8896 19.7227 65.7213 20.0241 64.6952 20.6225C63.6692 21.221 62.8673 22.0477 62.2853 23.0983C61.7033 24.1489 61.4102 25.376 61.4102 26.7797C61.4102 28.2178 61.7119 29.4622 62.3112 30.5171C62.9104 31.5676 63.7683 32.3814 64.8763 32.9541C65.9843 33.5267 67.3035 33.8109 68.8382 33.8109C69.5582 33.8109 70.3385 33.7162 71.1792 33.5181C72.0198 33.3244 72.7613 33.0273 73.408 32.6182C73.74 32.4159 73.9771 32.1748 74.115 31.8992C74.253 31.6236 74.3047 31.3481 74.2659 31.0811C74.2271 30.8142 74.1237 30.5859 73.9469 30.4051C73.7702 30.22 73.5374 30.1123 73.2399 30.0865C72.9424 30.0607 72.6018 30.1554 72.2138 30.3793C71.6793 30.6764 71.1102 30.883 70.5109 31.0036C69.9117 31.1242 69.3685 31.1844 68.89 31.1844C67.5061 31.1844 66.4542 30.8098 65.7428 30.065C65.1781 29.4708 64.8418 28.6355 64.7254 27.559H73.1019C73.5287 27.5547 73.8564 27.4686 74.0892 27.2921ZM66.355 22.6118C66.8982 22.2544 67.5621 22.0736 68.3381 22.0736C69.0408 22.0736 69.6272 22.2243 70.0971 22.53C70.567 22.8357 70.9291 23.2706 71.1792 23.8432C71.3861 24.3168 71.5025 24.8938 71.537 25.5612H64.7427C64.8073 25.0359 64.928 24.558 65.1091 24.136C65.3936 23.4815 65.8118 22.9735 66.355 22.6118Z" fill="black"/>
<path d="M84.1597 24.7305H78.2578C77.8526 24.7305 77.512 24.8596 77.2447 25.118C76.9774 25.3763 76.8438 25.7079 76.8438 26.1126C76.8438 26.5001 76.9774 26.8273 77.2447 27.0943C77.512 27.3613 77.8482 27.4947 78.2578 27.4947H84.1597C84.5477 27.4947 84.8754 27.3613 85.1427 27.0943C85.41 26.8273 85.5436 26.5001 85.5436 26.1126C85.5436 25.7079 85.41 25.3763 85.1427 25.118C84.8754 24.8596 84.5477 24.7305 84.1597 24.7305Z" fill="black"/>
<path d="M96.6873 30.7632C96.5019 30.7805 96.2907 30.8192 96.0493 30.8752C95.8079 30.9312 95.5319 30.957 95.2172 30.957C94.3464 30.957 93.7213 30.7331 93.3333 30.2939C92.9453 29.8504 92.7513 29.1874 92.7513 28.3004V22.5996H95.6872C96.1312 22.5996 96.4718 22.4834 96.7132 22.2552C96.9546 22.0227 97.0753 21.704 97.0753 21.2993C97.0753 20.8773 96.9546 20.5501 96.7132 20.3305C96.4718 20.1109 96.1312 19.999 95.6872 19.999H92.7513V17.4801C92.7513 16.9075 92.6047 16.4726 92.3072 16.1798C92.0098 15.8827 91.5873 15.7363 91.0311 15.7363C90.475 15.7363 90.0482 15.8827 89.7421 16.1798C89.436 16.4769 89.2851 16.9075 89.2851 17.4801V19.999H87.8452C87.4012 19.999 87.0606 20.1109 86.8192 20.3305C86.5777 20.5501 86.457 20.8773 86.457 21.2993C86.457 21.704 86.5777 22.0227 86.8192 22.2552C87.0606 22.4877 87.4012 22.5996 87.8452 22.5996H89.2851V28.4941C89.2851 29.6567 89.4791 30.6298 89.8671 31.4134C90.2551 32.197 90.8501 32.7912 91.6562 33.2003C92.4581 33.605 93.4626 33.8074 94.6611 33.8074C94.9543 33.8074 95.2991 33.7729 95.6872 33.7126C96.0752 33.6481 96.3899 33.5792 96.6313 33.506C96.946 33.394 97.1616 33.196 97.2823 32.9118C97.403 32.6276 97.4633 32.3004 97.4633 31.9301C97.4633 31.4478 97.39 31.1335 97.2435 30.9742C97.0926 30.8149 96.9115 30.746 96.6873 30.7632Z" fill="black"/>
<path d="M108.248 20.5795C107.214 20.0068 105.994 19.7227 104.588 19.7227C103.536 19.7227 102.583 19.8863 101.734 20.2049C100.885 20.5278 100.156 20.9971 99.5441 21.6172C98.9319 22.2372 98.4663 22.9735 98.143 23.8303C97.8197 24.6871 97.6602 25.6602 97.6602 26.7496C97.6602 28.1877 97.9447 29.4406 98.5181 30.4998C99.0915 31.559 99.8933 32.3771 100.928 32.9498C101.963 33.5224 103.183 33.8066 104.588 33.8066C105.64 33.8066 106.593 33.643 107.442 33.3244C108.291 33.0014 109.02 32.5321 109.632 31.9121C110.24 31.2921 110.71 30.5515 111.033 29.6861C111.357 28.8206 111.516 27.8389 111.516 26.7539C111.516 25.3158 111.227 24.0671 110.658 23.0165C110.085 21.9616 109.283 21.1521 108.248 20.5795ZM107.597 29.1995C107.308 29.854 106.908 30.3491 106.39 30.6807C105.873 31.0122 105.274 31.1801 104.588 31.1801C103.553 31.1801 102.721 30.8055 102.092 30.0607C101.463 29.3115 101.148 28.2135 101.148 26.7539C101.148 25.7765 101.29 24.9584 101.579 24.3039C101.864 23.6495 102.269 23.1586 102.786 22.8357C103.303 22.5128 103.903 22.3534 104.588 22.3534C105.623 22.3534 106.455 22.7194 107.084 23.4471C107.714 24.1748 108.028 25.277 108.028 26.7539C108.024 27.7313 107.882 28.545 107.597 29.1995Z" fill="black"/>
<path d="M125.095 13.7988C124.539 13.7988 124.116 13.9452 123.819 14.2423C123.521 14.5394 123.375 14.97 123.375 15.5426V22.0399C123.051 21.4501 122.586 20.9549 121.974 20.5545C121.133 19.999 120.15 19.7235 119.02 19.7235C117.839 19.7235 116.8 20.0077 115.904 20.5803C115.007 21.153 114.308 21.9624 113.813 23.0001C113.313 24.0421 113.062 25.2951 113.062 26.7504C113.062 28.1885 113.313 29.4415 113.813 30.5007C114.313 31.5599 115.007 32.3779 115.904 32.9506C116.8 33.5233 117.839 33.8074 119.02 33.8074C120.167 33.8074 121.163 33.5233 122.012 32.9506C122.625 32.5416 123.082 32.0292 123.396 31.4178V31.9818C123.396 32.5545 123.543 32.9937 123.84 33.2951C124.138 33.5965 124.56 33.7515 125.116 33.7515C125.673 33.7515 126.095 33.6008 126.392 33.2951C126.69 32.9894 126.837 32.5545 126.837 31.9818V15.5426C126.837 14.97 126.686 14.5351 126.38 14.2423C126.073 13.9495 125.651 13.7988 125.095 13.7988ZM121.797 30.6815C121.279 31.013 120.68 31.181 119.995 31.181C118.96 31.181 118.128 30.8064 117.499 30.0615C116.869 29.3123 116.555 28.2143 116.555 26.7547C116.555 25.7773 116.697 24.9592 116.986 24.3047C117.27 23.6503 117.675 23.1594 118.193 22.8365C118.71 22.5136 119.309 22.3543 119.995 22.3543C121.029 22.3543 121.862 22.7202 122.491 23.4479C123.12 24.1756 123.435 25.2778 123.435 26.7547C123.435 27.7321 123.293 28.5502 123.004 29.2046C122.715 29.8548 122.314 30.35 121.797 30.6815Z" fill="black"/>
<path d="M142.143 23.0165C141.569 21.9659 140.767 21.1521 139.733 20.5795C138.698 20.0068 137.478 19.7227 136.073 19.7227C135.021 19.7227 134.068 19.8863 133.219 20.2049C132.369 20.5278 131.641 20.9971 131.028 21.6172C130.416 22.2372 129.951 22.9735 129.627 23.8303C129.304 24.6871 129.145 25.6602 129.145 26.7496C129.145 28.1877 129.429 29.4406 130.002 30.4998C130.576 31.559 131.378 32.3771 132.412 32.9498C133.447 33.5224 134.667 33.8066 136.073 33.8066C137.124 33.8066 138.077 33.643 138.926 33.3244C139.776 33.0014 140.504 32.5321 141.117 31.9121C141.724 31.2921 142.194 30.5515 142.518 29.6861C142.841 28.8206 143 27.8389 143 26.7539C143 25.3115 142.712 24.0671 142.143 23.0165ZM139.077 29.1995C138.789 29.854 138.388 30.3491 137.87 30.6807C137.353 31.0122 136.754 31.1801 136.068 31.1801C135.034 31.1801 134.201 30.8055 133.572 30.0607C132.943 29.3115 132.628 28.2135 132.628 26.7539C132.628 25.7765 132.77 24.9584 133.059 24.3039C133.344 23.6495 133.749 23.1586 134.266 22.8357C134.783 22.5128 135.383 22.3534 136.068 22.3534C137.103 22.3534 137.935 22.7194 138.564 23.4471C139.194 24.1748 139.508 25.277 139.508 26.7539C139.508 27.7313 139.366 28.545 139.077 29.1995Z" fill="black"/>
</g>
<defs>
<clipPath id="clip0_1776_33162">
<rect width="143" height="44" fill="white"/>
</clipPath>
</defs>
</svg>
